<svg width="402" height="324" viewBox="0 0 402 324" fill="none" xmlns="http://www.w3.org/2000/svg">
<path fill-rule="evenodd" clip-rule="evenodd" d="M401.694 258.069C401.736 266.732 393.116 272.778 384.988 269.786C368.195 263.606 334.604 250.199 301.12 258.743C268.572 268.327 235.2 299.867 201.741 313.638C168.282 327.408 134.732 322.364 101.166 314.183C68.5266 304.953 34.9354 291.546 18.1424 285.366C7.93948 280.977 1.30931 270.959 1.2552 259.85L0.158808 34.7669C0.0711246 16.7658 14.5927 2.0939 32.5937 1.99621C49.3562 1.90525 51.2187 1.89514 83.8124 1.71827C117.337 1.53634 161.106 1.29883 194.631 1.1169C228.156 0.934973 267.268 0.722725 299.862 0.545852C333.387 0.363925 341.768 0.318443 358.531 0.22748C381.675 0.101886 400.528 18.7621 400.641 41.9064L401.694 258.069Z" fill="#DEDEEA"/>
</svg>
